<svg
  xmlns="http://www.w3.org/2000/svg"
  xmlns:xlink="http://www.w3.org/1999/xlink"
  width="40"
  height="40"
  viewBox="0 0 40 40"
>
  <defs>
    <path
      id="47f1323c-993c-4d45-aab1-bebb1206c2bb-a"
      d="M.001.592h26.926v24.039H.001z"
    />
  </defs>
  <g fill="none" fill-rule="evenodd">
    <path d="M0 0h40v40H0z" />
    <g opacity=".8" transform="translate(6.316 2.737)">
      <g transform="translate(0 7.045)">
        <path
          fill="#fff"
          d="M20.005.608c-2.722-.193-5.031 1.456-6.32 1.456-1.308 0-3.324-1.415-5.461-1.376-2.806.04-5.393 1.564-6.84 3.972C-1.531 9.506.64 16.687 3.479 20.62c1.389 1.922 3.045 4.088 5.221 4.009 2.094-.08 2.887-1.298 5.418-1.298 2.53 0 3.243 1.298 5.458 1.259 2.254-.04 3.683-1.962 5.061-3.894 1.596-2.23 2.251-4.39 2.29-4.505-.05-.018-4.394-1.614-4.437-6.408-.04-4.008 3.415-5.935 3.573-6.028C24.102.989 21.073.684 20.005.608"
          mask="url(#47f1323c-993c-4d45-aab1-bebb1206c2bb-b)"
        />
      </g>
      <path
        fill="#fff"
        d="M18.325 5.057C19.482 3.718 20.26 1.854 20.045 0c-1.663.063-3.676 1.062-4.87 2.4-1.07 1.185-2.008 3.083-1.753 4.899 1.855.137 3.748-.902 4.903-2.242"
      />
    </g>
  </g>
</svg>
